<svg version="1" xmlns="http://www.w3.org/2000/svg" width="346.667" height="346.667" viewBox="0 0 260.000000 260.000000"><path d="M0 130v130h260V0H0v130zm247 0v117H13V13h234v117z"/><path d="M208 45.5V52h-13v26h-52v13h-26v13H91v13H78v13H65v13H52v13H26v26h13v13h13v13h39v13h65v-13h26v-13h13v-13h13v-13h13v-26h13v-39h-13V78h13V52h-13V39h-13v6.5zm-26 52v6.5h13V91h13v13h-13v52h-13v13h-13v13h-13v13H91v-13H65v-26h26v-13H78v-13h13v-13h26v-13h26V91h39v6.5z"/><path d="M156 110.5v6.5h-26v13H91v13h13v26H91v13h13v-13h13v-26h13v-13h26v26h-13v13h13v-13h13v-39h13v-13h-26v6.5z"/></svg>